<?xml version="1.0" encoding="UTF-8" standalone="no"?>
<svg id="svg2" xmlns:rdf="http://www.w3.org/1999/02/22-rdf-syntax-ns#" xmlns="http://www.w3.org/2000/svg" enable-background="new 0 0 100 100" xml:space="preserve" height="150" width="67.585" version="1.1" y="0px" x="0px" xmlns:cc="http://creativecommons.org/ns#" xmlns:dc="http://purl.org/dc/elements/1.1/" viewBox="0 0 67.585 150"><metadata id="metadata26"><rdf:RDF><cc:Work rdf:about=""><dc:format>image/svg+xml</dc:format><dc:type rdf:resource="http://purl.org/dc/dcmitype/StillImage"/><dc:title/></cc:Work></rdf:RDF></metadata><g id="g4" transform="matrix(1.6667 0 0 1.6667 -49.542 -8.3333)"><path id="path6" d="m41.259 62.372-11.534-7.121v9.583c0 4.638 2.403 8.946 6.35 11.382l8.107 5.005v13.779h3.427v-11.663-7.44-2.143c-0.001-4.638-2.404-8.945-6.35-11.382zm2.928 13.525h-0.005v1.304l-6.31-3.895c-2.959-1.827-4.725-4.993-4.725-8.471v-3.449l6.315 3.899c2.959 1.827 4.726 4.993 4.726 8.471v2.141z"/><path id="path8" d="m52.392 73.755v2.143 7.44 11.662h3.427v-13.778l8.107-5.005c3.947-2.437 6.35-6.744 6.35-11.382v-9.583l-11.534 7.121c-3.948 2.436-6.35 6.743-6.35 11.382zm14.462-12.37v3.449c0 3.477-1.767 6.644-4.726 8.471l-6.31 3.895v-1.304h-0.005v-2.143c0-3.477 1.767-6.644 4.726-8.471l6.315-3.897z"/><path id="path10" d="m41.259 37.781-11.534-7.121v9.583c0 4.638 2.403 8.946 6.35 11.382l11.534 7.121v-9.583c-0.001-4.638-2.404-8.945-6.35-11.382zm2.928 14.832-6.315-3.899c-2.959-1.827-4.725-4.993-4.725-8.471v-3.449l6.315 3.899c2.959 1.827 4.726 4.993 4.726 8.471v3.449z"/><path id="path12" d="m52.392 49.163v9.583l11.534-7.121c3.947-2.437 6.35-6.744 6.35-11.382v-9.583l-11.534 7.121c-3.948 2.437-6.35 6.744-6.35 11.382zm14.462-12.369v3.449c0 3.477-1.767 6.644-4.726 8.471l-6.315 3.899v-3.449c0-3.477 1.767-6.644 4.726-8.471l6.315-3.899z"/><path id="path14" d="m41.259 12.121-11.534-7.121v9.583c0 4.638 2.403 8.946 6.35 11.382l11.534 7.121v-9.583c-0.001-4.639-2.404-8.946-6.35-11.382zm2.928 14.831-6.315-3.899c-2.959-1.827-4.725-4.993-4.725-8.471v-3.449l6.315 3.899c2.959 1.827 4.726 4.993 4.726 8.471v3.449z"/><path id="path16" d="m58.741 12.121c-3.947 2.437-6.35 6.744-6.35 11.382v9.583l11.534-7.121c3.947-2.437 6.35-6.744 6.35-11.382v-9.583l-11.534 7.121zm8.113 2.462c0 3.477-1.767 6.644-4.726 8.471l-6.315 3.899v-3.449c0-3.477 1.767-6.644 4.726-8.471l6.315-3.899v3.449z"/></g></svg>
