<?xml version="1.0" encoding="UTF-8" standalone="no"?>
<svg id="svg2" xmlns:rdf="http://www.w3.org/1999/02/22-rdf-syntax-ns#" xmlns="http://www.w3.org/2000/svg" enable-background="new 0 0 100 100" xml:space="preserve" height="50" width="34" version="1.1" y="0px" x="0px" xmlns:cc="http://creativecommons.org/ns#" xmlns:dc="http://purl.org/dc/elements/1.1/" viewBox="0 0 34 50"><metadata id="metadata10"><rdf:RDF><cc:Work rdf:about=""><dc:format>image/svg+xml</dc:format><dc:type rdf:resource="http://purl.org/dc/dcmitype/StillImage"/><dc:title/></cc:Work></rdf:RDF></metadata><path id="path4" d="m30.327 3.9357-0.05565 1.7738l0.154-4.2556-23.304 0.106 0.113 8.3071c-1.0573 0.99778-1.8363 2.5499-1.8363 3.9911 0 1.663 0.77905 3.2151 2.1146 4.1574l0.61211 0.44346 1.6694 21.341 0.50082 6.5965c0.05565 0.49889-0.33388 0.88692-0.8347 0.88692-0.44517 0-0.77905-0.33259-0.8347-0.77605l-0.5012-6.707-0.2226-2.882-0.5008-6.375-0.8347-11.086c-1.7251-1.275-2.838-3.271-2.838-5.543 0-1.9401 0.8347-3.714 2.1146-4.9335h-0.05565l-0.19706-0.3178-0.11129-3.1596-0.05565-1.7738c-0.0556-1.3309-0.0074-2.0109 1.2168-2.0109h21.517c1.2242 0 2.2259 0.99778 2.1702 2.2173m3.673 9.9783c0-0.49889-0.05565-0.94235-0.16694-1.4412-0.27823-1.3858-1.0016-2.6053-2.0033-3.5477l0.111-3.1047v-0.11086l0.16694-3.4922c0.111-1.2195-0.89-2.2173-2.115-2.2173h-25.931c-1.224 0-2.2257 0.99778-2.17 2.2727l0.16694 3.4922v0.11086l0.11129 3.1042c-1.0016 0.9424-1.6694 2.162-2.0033 3.548-0.11125 0.443-0.1669 0.942-0.1669 1.441 0 1.4412 0.44517 2.7716 1.1686 3.8248 0.44517 0.66519 1.0016 1.2195 1.6694 1.7184l0.8347 12.805v0.22173l0.33388 5.2106 0.16694 2.1619 0.50082 7.0953c0.1113 1.663 1.5025 2.993 3.1719 2.993h18.252c1.6694 0 3.0606-1.2749 3.1718-2.9933l0.557-7.207 1.391-20.399c0.667-0.443 1.224-1.053 1.669-1.718 0.668-1.053 1.113-2.384 1.113-3.769"/><path id="path4138" style="stroke:#000;stroke-width:1px;fill:none" d="m4.5551 9.6398z"/></svg>
