<?xml version="1.0" encoding="UTF-8" standalone="no"?>
<svg id="svg2" xmlns:rdf="http://www.w3.org/1999/02/22-rdf-syntax-ns#" xmlns="http://www.w3.org/2000/svg" xml:space="preserve" height="114.58" width="240" version="1.1" y="0px" x="0px" xmlns:cc="http://creativecommons.org/ns#" xmlns:dc="http://purl.org/dc/elements/1.1/" viewBox="0 0 240 114.57556"><metadata id="metadata14"><rdf:RDF><cc:Work rdf:about=""><dc:format>image/svg+xml</dc:format><dc:type rdf:resource="http://purl.org/dc/dcmitype/StillImage"/><dc:title/></cc:Work></rdf:RDF></metadata><g id="g4146" transform="matrix(2.8644 0 0 2.8644 -6939.3 -409.2)"><path id="path4" d="m2506.2 148.76c-0.3-0.5-0.9-0.6-1.4-0.3-0.7 0.4-1.3 0.4-1.8 0.2 1.1-0.8 1.6-2 1.4-3.2-0.2-1.5-1.3-2.5-2.7-2.6-1.4 0-2.6 1.1-2.9 2.5-0.1 0.8 0.1 1.7 0.5 2.5-0.6 0.1-1.1 0-1.4-0.2-1.1-0.9-2.4-1.7-4-2.2-4.3-1.5-11.1-2-18.3-1.5-1.8 0.1-3.5 0.3-5 0.4-4.4 0.3-7.9 0.6-11.2 0.6h-0.6c-4.8 0-14.6 0.1-20.6 3.7-0.5-0.2-1-0.4-1.5-0.7-1.3-0.5-2.9-0.9-4.7-1.1-0.9-0.1-1.8 0-2.8 0.2l-0.4 0.1h-0.2-0.1-0.1c-0.2 0.1-0.4 0.3-0.6 0.6-0.1 0.2 0 0.3 0 0.4s0.1 0.2 0.1 0.3c0.1 0.3 0.2 0.4 0.3 0.5 0.4 0.4 0.8 0.7 1.1 0.9 0.4 0.3 0.7 0.5 1 0.8l0.7 0.7c0.1 0.3 0.3 0.7 0.5 1.1 0.1 0.2 0.2 0.4 0.4 0.6-0.9 0.9-1.7 1.7-2.9 2.5l-0.3 0.2c-3.3 2.4-3.9 2.8-4.9 2.7-0.3 0-0.5 0-0.8 0.2s-0.3 0.4-0.4 0.7c-0.1 1 0.2 2.1 0.9 3.2 0.6 1.2 1.4 1.6 2.3 1.7 0 0.5 0.2 1 0.5 1.3 0.4 0.5 1.1 0.7 1.8 0.6 0.8-0.2 1.1-0.1 2.1 0.2 1.3 0.4 3.8 0.8 6.6-0.1 1.5 0.5 5.8 1.4 10 1.8 0.2 2.2 0.4 6.3 0 7.8-0.2 1.1-1 1.9-1.6 2.7-0.4 0.4-0.7 0.8-0.9 1.2-0.2 0.3-0.2 0.7 0 1s0.5 0.5 0.9 0.5h4.7c0.2 0 0.4-0.1 0.6-0.2l1.7-1.3c0.2-0.2 0.3-0.4 0.4-0.6l0.4-2.4c0.1 0.1 0.1 0.1 0.1 0.2l0.4 0.4 0.8 0.8c1.1 1 2.5 1.7 3.9 2.1 0.4 0.1 0.9 0 1.1-0.4l1.7-2.5c0.2-0.3 0.2-0.7 0.1-1l-0.6-1.1c0.2-0.3 0-0.5-0.3-0.5l-1.1-0.3c-0.3-0.1-0.7-0.2-0.9-0.4-0.3-0.2-0.2-0.2-0.3-0.2 0 0 0-0.2 0.1-0.4l0.1-0.1s0-0.1 0.1-0.1l0.2-0.2 0.2-0.2c0.3-0.3 0.6-0.6 0.8-0.9 0.5-0.6 1-1.3 1.5-2 0.3-0.5 0.6-0.9 0.9-1.4 2.9 1.1 6.6 1.6 10.3 1.6 3.6 0 7.2-0.5 10.2-1.5 0.1 0.6 0.3 1.3 0.4 1.9 0.1 0.4 0.3 0.9 0.4 1.3s0.2 0.7 0.3 1.1v1c0 0.1 0 0.1-0.1 0.2 0 0.1 0 0.1-0.1 0.2 0 0.1-0.2 0.4-0.3 0.5l-1.2 2.3c-0.4 0.8-0.8 1.5-1.2 2.2-0.2 0.4-0.4 0.7-0.6 1.1-0.2 0.3-0.5 0.7-0.7 0.9s-0.3 0.4-0.3 0.6c0 0.5 0.4 0.9 0.9 0.9h5.2c0.3 0 0.5-0.1 0.7-0.4 0.7-0.9 1-1.7 1.4-2.6 0.2-0.4 0.3-0.8 0.5-1.2s0.4-0.7 0.5-0.9c0.2-0.3 0.4-0.5 0.7-0.8l1-0.9c0.4-0.3 0.7-0.7 1-1.1 0.2-0.2 0.3-0.4 0.4-0.7s0.3-0.6 0.3-0.7c0.2-0.5 0.3-1 0.4-1.5s0.1-1 0.1-1.4v-0.5c1 1.4 1.9 2.9 2 3.4 0.1 0.9 0.3 2.7 0.1 4.3-0.1 0.7-0.5 1.2-0.9 1.7-0.4 0.4-0.8 0.9-0.9 1.5-0.1 0.3 0 0.6 0.2 0.8s0.5 0.4 0.8 0.4h4.4c0.2 0 0.5-0.1 0.7-0.3l1.8-1.6c0.3-0.3 0.4-0.7 0.3-1.1-0.2-0.5-0.3-1.2-0.3-3.1 0-0.9 0.2-2.1 0.5-3.4 0.2-1.4 0.5-2.6 0.4-3.3 0-1-0.6-2.3-1.2-3.5l-0.6-1.2c2.1-2.6 3.1-7 2.3-10.7-0.3-1.7-0.9-3.1-1.7-4.4 0.3 0 0.7-0.1 1-0.2 0.1 0.1 0.2 0.1 0.3 0.2 0.8 0.6 1.7 0.9 2.6 0.9 0.7 0 1.4-0.2 2.1-0.6 0.5-0.1 0.6-0.8 0.3-1.2zm-77 0zm21.8 29.8-1.1 0.8h-2.3c0.6-0.7 1.2-1.7 1.5-2.9 0.4-1.8 0.2-5.7 0.1-8.1h1.5 0.8c0 0.6 0 1.2-0.1 1.8l-0.1 0.4c0 0.1 0 0.3-0.1 0.4 0 0.1 0 0.1-0.1 0.3 0 0.1-0.1 0.3-0.1 0.4v0.7c0.1 0.7 0.4 1.3 0.6 1.8-0.1 1.5-0.5 3.5-0.6 4.4zm46.4-14.6c-0.2 0.3-0.3 0.6-0.2 1 0.2 0.6 0.5 1.3 0.9 2 0.4 0.9 1 2.1 1 2.7s-0.2 1.8-0.4 2.9c-0.2 1.3-0.5 2.7-0.5 3.7 0 1.4 0 2.4 0.2 3.2l-1 1h-1.7c0.4-0.5 0.8-1.2 0.9-2.2 0.2-1.8 0-3.8-0.1-4.8-0.2-1.2-1.8-3.7-2.9-5.1 0.4-0.5 0.8-1 1.1-1.5 0.2-0.4 0.5-0.8 0.7-1.2s0.4-0.9 0.5-1.3c0-0.1 0-0.2-0.1-0.3-0.1-0.2-0.4-0.2-0.6 0-0.3 0.3-0.6 0.5-1 0.8l-0.9 0.9c-0.6 0.6-1.2 1.3-1.7 1.9l-0.1 0.1-0.1 0.1-0.3-0.1c-0.1 0.1-0.1 0.1-0.2 0.3-0.2 0.3-0.3 0.6-0.4 0.9-0.2 0.6-0.2 1.1-0.2 1.5s0 0.8-0.1 1.2-0.1 0.7-0.3 1c-0.1 0.2-0.1 0.3-0.2 0.5-0.1 0.1-0.2 0.3-0.3 0.4-0.2 0.3-0.4 0.5-0.7 0.8l-1 0.9c-0.3 0.3-0.7 0.7-1 1.1-0.4 0.5-0.5 0.9-0.7 1.4-0.2 0.4-0.3 0.9-0.5 1.3-0.2 0.6-0.5 1.3-0.7 1.8h-2.9c0.2-0.2 0.3-0.5 0.4-0.7 0.4-0.8 0.9-1.5 1.3-2.3l1.2-2.3 0.3-0.6c0-0.1 0.1-0.3 0.2-0.4 0-0.1 0.1-0.3 0.1-0.4 0.1-0.6 0.1-1.1 0-1.6s-0.2-1-0.3-1.4c-0.2-0.5-0.3-0.8-0.4-1.2-0.2-0.8-0.4-1.6-0.5-2.4s-0.2-1.6-0.2-2.4c0-0.4 0-0.8 0.1-1.1 0.1-0.4 0.2-0.7 0.3-1v-0.1c0.2-0.5 0-1-0.5-1.2s-1 0-1.2 0.5-0.3 1-0.4 1.5-0.1 1-0.1 1.4c0 0.5 0 1 0.1 1.5-6.5 2.1-14.7 1.7-19.6-0.1 0-0.1 0-0.1 0.1-0.2l0.1-0.3v-0.1-0.2c0-0.2 0.1-0.4 0.1-0.7 0.1-0.9 0-1.8-0.3-2.7-0.1-0.4-0.3-0.8-0.5-1.2s-0.4-0.8-0.5-1.1c-0.3-0.5-0.9-0.7-1.4-0.4s-0.7 0.9-0.4 1.4c0.2 0.4 0.3 0.7 0.5 1 0.1 0.3 0.3 0.6 0.4 1 0.2 0.6 0.3 1.3 0.2 2 0 0.2 0 0.3-0.1 0.5v0.1 0.1l-0.1 0.3c-0.1 0.2-0.2 0.6-0.4 0.9-0.3 0.6-0.7 1.3-1.1 1.9s-0.9 1.2-1.3 1.8c-0.2 0.3-0.5 0.6-0.7 0.8l-0.2 0.2-0.2 0.1c-0.1 0-0.2 0.2-0.3 0.3s-0.2 0.2-0.2 0.3c-0.3 0.5-0.5 1.1-0.4 1.9 0.1 0.7 0.8 1.3 1.2 1.5 0.5 0.3 0.9 0.4 1.3 0.5l0.7 0.2 0.1 0.2-0.9 1.4c-0.9-0.4-1.7-0.8-2.5-1.5-0.2-0.2-0.5-0.4-0.7-0.6l-0.3-0.3c-0.1-0.1-0.2-0.3-0.3-0.4-0.4-0.5-0.7-1-1-1.5s-0.5-1.1-0.6-1.6v-0.3-0.1c0-0.1 0-0.2 0.1-0.2 0-0.1 0.1-0.4 0.1-0.6l0.1-0.6c0.1-0.7 0.1-1.5 0.1-2.2 0-0.4 0-0.7-0.1-1.1s-0.1-0.7-0.3-1.2v-0.1c-0.1-0.3-0.4-0.5-0.7-0.5-0.1 0-0.2 0-0.3-0.1s-0.3-0.1-0.4-0.2c-0.3-0.2-0.6-0.4-0.8-0.6-0.3-0.2-0.5-0.5-0.8-0.7-0.2-0.3-0.5-0.6-0.6-0.8v-0.1c-0.2-0.3-0.5-0.4-0.8-0.3s-0.5 0.5-0.3 0.8c0.2 0.5 0.4 0.8 0.6 1.2s0.5 0.7 0.8 1c0.2 0.3 0.5 0.6 0.8 0.8-5.2 0-12-1.6-12.9-2-0.2-0.1-0.5-0.1-0.7 0-2.4 0.9-4.6 0.5-5.7 0.1-1.1-0.3-1.7-0.5-2.9-0.2 0-0.2 0-0.4 0.1-0.6 0.2-0.3 0.1-0.8-0.1-1.1s-0.6-0.4-1-0.4c-1 0.2-1.2 0.1-1.5-0.6-0.2-0.4-0.4-0.9-0.5-1.2 1.3-0.2 2.5-1.1 5.1-3l0.3-0.2c1.1-0.8 2.1-1.7 2.9-2.5 0.3 0.3 0.7 0.7 1.1 0.9 0.7 0.5 1.5 0.9 2.3 1 0.4 0.1 0.7 0.1 1.1 0.2h0.5c0.2 0 0.4 0 0.5-0.1 0.7-0.2 1.4-0.6 1.6-1.2 0.3-0.6 0.1-1.1 0.1-1.3l-0.2-0.4c-0.1-0.1-0.2-0.2-0.3-0.2-0.2-0.1-0.5 0.1-0.5 0.3v0.1s0 0.1-0.1 0.3c0 0.2-0.1 0.4-0.3 0.4-0.1 0.1-0.3 0.1-0.7 0.2h-0.3-0.3c-0.2 0-0.5-0.1-0.8-0.1-1.1-0.3-2.2-1-3.1-2.1-0.2-0.3-0.4-0.6-0.7-1-0.2-0.4-0.4-0.8-0.7-1.2-0.4-0.6-0.8-0.8-1.2-1.1s-0.7-0.5-1.1-0.8c-0.1-0.1-0.2-0.1-0.2-0.2 0.6-0.1 1.2-0.1 1.7 0 0.8 0.1 1.5 0.2 2.2 0.4s1.3 0.4 1.9 0.7c1.2 0.5 2.1 1.1 2.7 1.5 0.3 0.2 0.5 0.3 0.7 0.5l0.2 0.4h0.1c0.5 0.3 1.1 0.2 1.4-0.2s0.2-1.1-0.2-1.4c0 0-0.1-0.1-0.3-0.2-0.1 0-0.2-0.1-0.3-0.2 5.6-2.7 14.2-2.8 18.5-2.8h0.6c3.3 0 6.9-0.3 11.3-0.6 1.6-0.1 3.2-0.2 5-0.4 6.9-0.5 13.5 0 17.5 1.4 3.5 1.2 5.5 3.5 6.2 7.2 0.8 3.2-0.2 7.4-2.1 9.4zm4.2-16.8c-0.1 0-0.1 0.1-0.2 0.1-0.4-0.6-0.7-1.2-0.6-1.6 0.1-0.6 0.6-0.9 0.9-0.9 0.5 0 0.7 0.5 0.7 0.9 0.1 0.2 0.2 0.9-0.8 1.5zm-68.1 9.4c-0.6 0-1.2 0.5-1.2 1.2s0.5 1.2 1.2 1.2 1.2-0.5 1.2-1.2-0.5-1.2-1.2-1.2z"/><text id="text4142" style="font-size:16.934px;letter-spacing:0px;line-height:125%;word-spacing:0px;font-family:SignPainter;fill:#000000" y="158.29532" x="2447.2419" xml:space="preserve"><tspan id="tspan4144" y="158.29532" x="2447.2419">Gritsos</tspan></text>
</g><g id="g4151" transform="matrix(2.8644 0 0 2.8644 -6939.3 -409.2)"><path id="path4153" d="m2506.2 148.76c-0.3-0.5-0.9-0.6-1.4-0.3-0.7 0.4-1.3 0.4-1.8 0.2 1.1-0.8 1.6-2 1.4-3.2-0.2-1.5-1.3-2.5-2.7-2.6-1.4 0-2.6 1.1-2.9 2.5-0.1 0.8 0.1 1.7 0.5 2.5-0.6 0.1-1.1 0-1.4-0.2-1.1-0.9-2.4-1.7-4-2.2-4.3-1.5-11.1-2-18.3-1.5-1.8 0.1-3.5 0.3-5 0.4-4.4 0.3-7.9 0.6-11.2 0.6h-0.6c-4.8 0-14.6 0.1-20.6 3.7-0.5-0.2-1-0.4-1.5-0.7-1.3-0.5-2.9-0.9-4.7-1.1-0.9-0.1-1.8 0-2.8 0.2l-0.4 0.1h-0.2-0.1-0.1c-0.2 0.1-0.4 0.3-0.6 0.6-0.1 0.2 0 0.3 0 0.4s0.1 0.2 0.1 0.3c0.1 0.3 0.2 0.4 0.3 0.5 0.4 0.4 0.8 0.7 1.1 0.9 0.4 0.3 0.7 0.5 1 0.8l0.7 0.7c0.1 0.3 0.3 0.7 0.5 1.1 0.1 0.2 0.2 0.4 0.4 0.6-0.9 0.9-1.7 1.7-2.9 2.5l-0.3 0.2c-3.3 2.4-3.9 2.8-4.9 2.7-0.3 0-0.5 0-0.8 0.2s-0.3 0.4-0.4 0.7c-0.1 1 0.2 2.1 0.9 3.2 0.6 1.2 1.4 1.6 2.3 1.7 0 0.5 0.2 1 0.5 1.3 0.4 0.5 1.1 0.7 1.8 0.6 0.8-0.2 1.1-0.1 2.1 0.2 1.3 0.4 3.8 0.8 6.6-0.1 1.5 0.5 5.8 1.4 10 1.8 0.2 2.2 0.4 6.3 0 7.8-0.2 1.1-1 1.9-1.6 2.7-0.4 0.4-0.7 0.8-0.9 1.2-0.2 0.3-0.2 0.7 0 1s0.5 0.5 0.9 0.5h4.7c0.2 0 0.4-0.1 0.6-0.2l1.7-1.3c0.2-0.2 0.3-0.4 0.4-0.6l0.4-2.4c0.1 0.1 0.1 0.1 0.1 0.2l0.4 0.4 0.8 0.8c1.1 1 2.5 1.7 3.9 2.1 0.4 0.1 0.9 0 1.1-0.4l1.7-2.5c0.2-0.3 0.2-0.7 0.1-1l-0.6-1.1c0.2-0.3 0-0.5-0.3-0.5l-1.1-0.3c-0.3-0.1-0.7-0.2-0.9-0.4-0.3-0.2-0.2-0.2-0.3-0.2 0 0 0-0.2 0.1-0.4l0.1-0.1s0-0.1 0.1-0.1l0.2-0.2 0.2-0.2c0.3-0.3 0.6-0.6 0.8-0.9 0.5-0.6 1-1.3 1.5-2 0.3-0.5 0.6-0.9 0.9-1.4 2.9 1.1 6.6 1.6 10.3 1.6 3.6 0 7.2-0.5 10.2-1.5 0.1 0.6 0.3 1.3 0.4 1.9 0.1 0.4 0.3 0.9 0.4 1.3s0.2 0.7 0.3 1.1v1c0 0.1 0 0.1-0.1 0.2 0 0.1 0 0.1-0.1 0.2 0 0.1-0.2 0.4-0.3 0.5l-1.2 2.3c-0.4 0.8-0.8 1.5-1.2 2.2-0.2 0.4-0.4 0.7-0.6 1.1-0.2 0.3-0.5 0.7-0.7 0.9s-0.3 0.4-0.3 0.6c0 0.5 0.4 0.9 0.9 0.9h5.2c0.3 0 0.5-0.1 0.7-0.4 0.7-0.9 1-1.7 1.4-2.6 0.2-0.4 0.3-0.8 0.5-1.2s0.4-0.7 0.5-0.9c0.2-0.3 0.4-0.5 0.7-0.8l1-0.9c0.4-0.3 0.7-0.7 1-1.1 0.2-0.2 0.3-0.4 0.4-0.7s0.3-0.6 0.3-0.7c0.2-0.5 0.3-1 0.4-1.5s0.1-1 0.1-1.4v-0.5c1 1.4 1.9 2.9 2 3.4 0.1 0.9 0.3 2.7 0.1 4.3-0.1 0.7-0.5 1.2-0.9 1.7-0.4 0.4-0.8 0.9-0.9 1.5-0.1 0.3 0 0.6 0.2 0.8s0.5 0.4 0.8 0.4h4.4c0.2 0 0.5-0.1 0.7-0.3l1.8-1.6c0.3-0.3 0.4-0.7 0.3-1.1-0.2-0.5-0.3-1.2-0.3-3.1 0-0.9 0.2-2.1 0.5-3.4 0.2-1.4 0.5-2.6 0.4-3.3 0-1-0.6-2.3-1.2-3.5l-0.6-1.2c2.1-2.6 3.1-7 2.3-10.7-0.3-1.7-0.9-3.1-1.7-4.4 0.3 0 0.7-0.1 1-0.2 0.1 0.1 0.2 0.1 0.3 0.2 0.8 0.6 1.7 0.9 2.6 0.9 0.7 0 1.4-0.2 2.1-0.6 0.5-0.1 0.6-0.8 0.3-1.2zm-77 0zm21.8 29.8-1.1 0.8h-2.3c0.6-0.7 1.2-1.7 1.5-2.9 0.4-1.8 0.2-5.7 0.1-8.1h1.5 0.8c0 0.6 0 1.2-0.1 1.8l-0.1 0.4c0 0.1 0 0.3-0.1 0.4 0 0.1 0 0.1-0.1 0.3 0 0.1-0.1 0.3-0.1 0.4v0.7c0.1 0.7 0.4 1.3 0.6 1.8-0.1 1.5-0.5 3.5-0.6 4.4zm46.4-14.6c-0.2 0.3-0.3 0.6-0.2 1 0.2 0.6 0.5 1.3 0.9 2 0.4 0.9 1 2.1 1 2.7s-0.2 1.8-0.4 2.9c-0.2 1.3-0.5 2.7-0.5 3.7 0 1.4 0 2.4 0.2 3.2l-1 1h-1.7c0.4-0.5 0.8-1.2 0.9-2.2 0.2-1.8 0-3.8-0.1-4.8-0.2-1.2-1.8-3.7-2.9-5.1 0.4-0.5 0.8-1 1.1-1.5 0.2-0.4 0.5-0.8 0.7-1.2s0.4-0.9 0.5-1.3c0-0.1 0-0.2-0.1-0.3-0.1-0.2-0.4-0.2-0.6 0-0.3 0.3-0.6 0.5-1 0.8l-0.9 0.9c-0.6 0.6-1.2 1.3-1.7 1.9l-0.1 0.1-0.1 0.1-0.3-0.1c-0.1 0.1-0.1 0.1-0.2 0.3-0.2 0.3-0.3 0.6-0.4 0.9-0.2 0.6-0.2 1.1-0.2 1.5s0 0.8-0.1 1.2-0.1 0.7-0.3 1c-0.1 0.2-0.1 0.3-0.2 0.5-0.1 0.1-0.2 0.3-0.3 0.4-0.2 0.3-0.4 0.5-0.7 0.8l-1 0.9c-0.3 0.3-0.7 0.7-1 1.1-0.4 0.5-0.5 0.9-0.7 1.4-0.2 0.4-0.3 0.9-0.5 1.3-0.2 0.6-0.5 1.3-0.7 1.8h-2.9c0.2-0.2 0.3-0.5 0.4-0.7 0.4-0.8 0.9-1.5 1.3-2.3l1.2-2.3 0.3-0.6c0-0.1 0.1-0.3 0.2-0.4 0-0.1 0.1-0.3 0.1-0.4 0.1-0.6 0.1-1.1 0-1.6s-0.2-1-0.3-1.4c-0.2-0.5-0.3-0.8-0.4-1.2-0.2-0.8-0.4-1.6-0.5-2.4s-0.2-1.6-0.2-2.4c0-0.4 0-0.8 0.1-1.1 0.1-0.4 0.2-0.7 0.3-1v-0.1c0.2-0.5 0-1-0.5-1.2s-1 0-1.2 0.5-0.3 1-0.4 1.5-0.1 1-0.1 1.4c0 0.5 0 1 0.1 1.5-6.5 2.1-14.7 1.7-19.6-0.1 0-0.1 0-0.1 0.1-0.2l0.1-0.3v-0.1-0.2c0-0.2 0.1-0.4 0.1-0.7 0.1-0.9 0-1.8-0.3-2.7-0.1-0.4-0.3-0.8-0.5-1.2s-0.4-0.8-0.5-1.1c-0.3-0.5-0.9-0.7-1.4-0.4s-0.7 0.9-0.4 1.4c0.2 0.4 0.3 0.7 0.5 1 0.1 0.3 0.3 0.6 0.4 1 0.2 0.6 0.3 1.3 0.2 2 0 0.2 0 0.3-0.1 0.5v0.1 0.1l-0.1 0.3c-0.1 0.2-0.2 0.6-0.4 0.9-0.3 0.6-0.7 1.3-1.1 1.9s-0.9 1.2-1.3 1.8c-0.2 0.3-0.5 0.6-0.7 0.8l-0.2 0.2-0.2 0.1c-0.1 0-0.2 0.2-0.3 0.3s-0.2 0.2-0.2 0.3c-0.3 0.5-0.5 1.1-0.4 1.9 0.1 0.7 0.8 1.3 1.2 1.5 0.5 0.3 0.9 0.4 1.3 0.5l0.7 0.2 0.1 0.2-0.9 1.4c-0.9-0.4-1.7-0.8-2.5-1.5-0.2-0.2-0.5-0.4-0.7-0.6l-0.3-0.3c-0.1-0.1-0.2-0.3-0.3-0.4-0.4-0.5-0.7-1-1-1.5s-0.5-1.1-0.6-1.6v-0.3-0.1c0-0.1 0-0.2 0.1-0.2 0-0.1 0.1-0.4 0.1-0.6l0.1-0.6c0.1-0.7 0.1-1.5 0.1-2.2 0-0.4 0-0.7-0.1-1.1s-0.1-0.7-0.3-1.2v-0.1c-0.1-0.3-0.4-0.5-0.7-0.5-0.1 0-0.2 0-0.3-0.1s-0.3-0.1-0.4-0.2c-0.3-0.2-0.6-0.4-0.8-0.6-0.3-0.2-0.5-0.5-0.8-0.7-0.2-0.3-0.5-0.6-0.6-0.8v-0.1c-0.2-0.3-0.5-0.4-0.8-0.3s-0.5 0.5-0.3 0.8c0.2 0.5 0.4 0.8 0.6 1.2s0.5 0.7 0.8 1c0.2 0.3 0.5 0.6 0.8 0.8-5.2 0-12-1.6-12.9-2-0.2-0.1-0.5-0.1-0.7 0-2.4 0.9-4.6 0.5-5.7 0.1-1.1-0.3-1.7-0.5-2.9-0.2 0-0.2 0-0.4 0.1-0.6 0.2-0.3 0.1-0.8-0.1-1.1s-0.6-0.4-1-0.4c-1 0.2-1.2 0.1-1.5-0.6-0.2-0.4-0.4-0.9-0.5-1.2 1.3-0.2 2.5-1.1 5.1-3l0.3-0.2c1.1-0.8 2.1-1.7 2.9-2.5 0.3 0.3 0.7 0.7 1.1 0.9 0.7 0.5 1.5 0.9 2.3 1 0.4 0.1 0.7 0.1 1.1 0.2h0.5c0.2 0 0.4 0 0.5-0.1 0.7-0.2 1.4-0.6 1.6-1.2 0.3-0.6 0.1-1.1 0.1-1.3l-0.2-0.4c-0.1-0.1-0.2-0.2-0.3-0.2-0.2-0.1-0.5 0.1-0.5 0.3v0.1s0 0.1-0.1 0.3c0 0.2-0.1 0.4-0.3 0.4-0.1 0.1-0.3 0.1-0.7 0.2h-0.3-0.3c-0.2 0-0.5-0.1-0.8-0.1-1.1-0.3-2.2-1-3.1-2.1-0.2-0.3-0.4-0.6-0.7-1-0.2-0.4-0.4-0.8-0.7-1.2-0.4-0.6-0.8-0.8-1.2-1.1s-0.7-0.5-1.1-0.8c-0.1-0.1-0.2-0.1-0.2-0.2 0.6-0.1 1.2-0.1 1.7 0 0.8 0.1 1.5 0.2 2.2 0.4s1.3 0.4 1.9 0.7c1.2 0.5 2.1 1.1 2.7 1.5 0.3 0.2 0.5 0.3 0.7 0.5l0.2 0.4h0.1c0.5 0.3 1.1 0.2 1.4-0.2s0.2-1.1-0.2-1.4c0 0-0.1-0.1-0.3-0.2-0.1 0-0.2-0.1-0.3-0.2 5.6-2.7 14.2-2.8 18.5-2.8h0.6c3.3 0 6.9-0.3 11.3-0.6 1.6-0.1 3.2-0.2 5-0.4 6.9-0.5 13.5 0 17.5 1.4 3.5 1.2 5.5 3.5 6.2 7.2 0.8 3.2-0.2 7.4-2.1 9.4zm4.2-16.8c-0.1 0-0.1 0.1-0.2 0.1-0.4-0.6-0.7-1.2-0.6-1.6 0.1-0.6 0.6-0.9 0.9-0.9 0.5 0 0.7 0.5 0.7 0.9 0.1 0.2 0.2 0.9-0.8 1.5zm-68.1 9.4c-0.6 0-1.2 0.5-1.2 1.2s0.5 1.2 1.2 1.2 1.2-0.5 1.2-1.2-0.5-1.2-1.2-1.2z"/><text id="text4155" style="font-size:16.934px;letter-spacing:0px;line-height:125%;word-spacing:0px;font-family:SignPainter;fill:#000000" xml:space="preserve" y="158.29532" x="2447.2419"><tspan id="tspan4157" x="2447.2419" y="158.29532">Gritsos</tspan></text>
</g></svg>
