<?xml version="1.0" encoding="UTF-8" standalone="no"?>
<svg id="svg2" xmlns:rdf="http://www.w3.org/1999/02/22-rdf-syntax-ns#" xmlns="http://www.w3.org/2000/svg" enable-background="new 0 0 100 100" xml:space="preserve" height="150" width="108.33" version="1.1" y="0px" x="0px" xmlns:cc="http://creativecommons.org/ns#" xmlns:dc="http://purl.org/dc/elements/1.1/" viewBox="0 0 108.33333 150"><metadata id="metadata14"><rdf:RDF><cc:Work rdf:about=""><dc:format>image/svg+xml</dc:format><dc:type rdf:resource="http://purl.org/dc/dcmitype/StillImage"/><dc:title/></cc:Work></rdf:RDF></metadata><path id="path4" d="m108.33 66.535c0-28.512-22.033-51.862-50-53.992v-8.3771c0.003-2.2992-1.863-4.1659-4.163-4.1659s-4.167 1.8667-4.167 4.1667v8.3771c-27.967 2.129-50 25.479-50 53.991 1.7104 0 3.3958-0.09583 5.0646-0.25208-2.3167 13.371 0.5312 26.817 7.4354 37.887 2.0604-0.67084 4.0729-1.475 6.0375-2.3854 0.97292 10.01 4.6833 19.488 10.629 27.385 2.5229-1.0729 4.9521-2.3458 7.2812-3.7833 3.4729 9.8104 9.6771 18.327 17.719 24.617 8.0417-6.2917 14.212-14.827 17.683-24.64 2.3396 1.4458 4.7812 2.7271 7.3167 3.8062 5.9458-7.8979 9.6583-17.373 10.631-27.385 1.9625 0.9125 3.975 1.7146 6.0354 2.3854 6.9021-11.067 9.7521-24.513 7.4333-37.883 1.6708 0.15417 3.3583 0.25208 5.0667 0.25208zm-54.163-45.833c22.098 0 40.596 15.721 44.892 36.567-6.75-1.3833-13.088-4.2833-18.671-8.5875l-7.336-5.653-4.852 7.886c-3.579 5.818-8.379 10.745-14.033 14.441-5.655-3.694-10.457-8.623-14.036-14.441l-4.8521-7.8875-7.3354 5.6542c-5.5812 4.3021-11.921 7.2042-18.671 8.5875 4.2979-20.848 22.794-36.567 44.894-36.567zm7.4917 50.483c1.2125 3.3292 2.7312 6.4562 4.4875 9.3854-1.342 9.349-5.473 17.999-11.979 24.87-6.507-6.871-10.638-15.519-11.979-24.871 1.7583-2.9271 3.2771-6.0542 4.4875-9.3833 0.09167-0.25417 0.15625-0.5125 0.24375-0.76667 2.2875 1.7042 4.6979 3.2521 7.2479 4.5812 2.55-1.3292 4.9604-2.8771 7.2479-4.5812 0.0875 0.25417 0.15208 0.5125 0.24375 0.76667zm-45.317 22.427c-3.959-9.127-4.807-19.208-2.452-28.893 7.045-1.869 13.533-5.109 19.145-9.436 2.0167 3.2771 4.3792 6.3125 7.0208 9.0812-0.34583 1.3333-0.73333 2.6604-1.2125 3.9729-4.0521 11.133-12.079 20.067-22.502 25.275zm15.731 24.706c-3.554-6.56-5.365-13.81-5.435-21.174 3.2396-2.2417 6.2479-4.8375 8.9542-7.7688 1.9104 6.4438 4.9854 12.375 8.9833 17.575-3.4 4.5021-7.6146 8.3667-12.502 11.367zm22.094 20.45c-5.0333-5.3104-8.6229-11.692-10.621-18.635 2.4062-2.0917 4.625-4.4104 6.6521-6.9146 1.2708 1.2083 2.5854 2.3646 3.9688 3.4479 1.3833-1.0833 2.6979-2.2417 3.9667-3.45 2.0271 2.5021 4.2458 4.8208 6.6521 6.9146-1.9979 6.9417-5.5854 13.327-10.619 18.638zm22.094-20.45c-4.8875-2.9979-9.0979-6.8625-12.5-11.365 3.9938-5.1958 7.0792-11.125 8.9875-17.569 2.7062 2.9271 5.7104 5.5208 8.9479 7.7604-0.0687 7.3687-1.8792 14.617-5.4354 21.173zm15.731-24.708c-10.423-5.208-18.45-14.141-22.504-25.277-0.47708-1.3125-0.86667-2.6396-1.2104-3.9729 2.6438-2.7688 5.0042-5.8042 7.0208-9.0812 5.6125 4.3271 12.102 7.5667 19.146 9.4354 2.3542 9.6875 1.5083 19.769-2.4521 28.896z"/></svg>
