<?xml version="1.0" encoding="UTF-8" standalone="no"?>
<!-- Created with Inkscape (http://www.inkscape.org/) -->

<svg
   xmlns:dc="http://purl.org/dc/elements/1.1/"
   xmlns:cc="http://creativecommons.org/ns#"
   xmlns:rdf="http://www.w3.org/1999/02/22-rdf-syntax-ns#"
   xmlns:svg="http://www.w3.org/2000/svg"
   xmlns="http://www.w3.org/2000/svg"
   xmlns:sodipodi="http://sodipodi.sourceforge.net/DTD/sodipodi-0.dtd"
   xmlns:inkscape="http://www.inkscape.org/namespaces/inkscape"
   width="240.00002"
   height="69.305542"
   viewBox="0 0 240.00001 69.305539"
   id="svg4142"
   version="1.1"
   inkscape:version="0.91 r13725"
   sodipodi:docname="slogan.svg">
  <defs
     id="defs4144" />
  <sodipodi:namedview
     id="base"
     pagecolor="#ffffff"
     bordercolor="#666666"
     borderopacity="1.0"
     inkscape:pageopacity="0.0"
     inkscape:pageshadow="2"
     inkscape:zoom="1.979899"
     inkscape:cx="123.20324"
     inkscape:cy="-21.349878"
     inkscape:document-units="px"
     inkscape:current-layer="layer1"
     showgrid="false"
     fit-margin-top="0"
     fit-margin-left="0"
     fit-margin-right="0"
     fit-margin-bottom="0"
     units="px"
     inkscape:window-width="1280"
     inkscape:window-height="751"
     inkscape:window-x="0"
     inkscape:window-y="1"
     inkscape:window-maximized="1" />
  <metadata
     id="metadata4147">
    <rdf:RDF>
      <cc:Work
         rdf:about="">
        <dc:format>image/svg+xml</dc:format>
        <dc:type
           rdf:resource="http://purl.org/dc/dcmitype/StillImage" />
        <dc:title></dc:title>
      </cc:Work>
    </rdf:RDF>
  </metadata>
  <g
     inkscape:label="Layer 1"
     inkscape:groupmode="layer"
     id="layer1"
     transform="translate(-83.576858,-124.21603)">
    <g
       id="g4778">
      <g
         id="text4690"
         style="font-style:normal;font-weight:normal;font-size:26.42156982px;line-height:125%;font-family:sans-serif;letter-spacing:0px;word-spacing:0px;fill:#000000;fill-opacity:1;stroke:none;stroke-width:1px;stroke-linecap:butt;stroke-linejoin:miter;stroke-opacity:1"
         transform="matrix(0.95742714,0,0,1.0444659,-1.5152351,-2.1057014)">
        <path
           inkscape:connector-curvature="0"
           id="path4738"
           style="font-style:normal;font-variant:normal;font-weight:normal;font-stretch:normal;font-family:'Serto Jerusalem';-inkscape-font-specification:'Serto Jerusalem'"
           d="m 120.82668,146.03878 q 0,0.55475 -0.72247,0.55475 l -0.91598,0 -4.85083,14.01066 -1.50944,0 -2.76085,-8.39866 -2.69634,8.39866 -1.50943,0 -4.94115,-14.01066 -0.87727,0 q -0.72247,0 -0.72247,-0.55475 0,-0.54185 0.72247,-0.54185 l 2.91566,0 q 0.72246,0 0.72246,0.54185 0,0.55475 -0.72246,0.55475 l -0.91599,0 4.51541,12.92696 0.0774,0 2.87695,-8.74698 1.12241,0 2.76084,8.74698 0.20642,0 4.50251,-12.92696 -0.91599,0 q -0.72246,0 -0.72246,-0.55475 0,-0.54185 0.72246,-0.54185 l 2.91566,0 q 0.72247,0 0.72247,0.54185 z" />
        <path
           inkscape:connector-curvature="0"
           id="path4740"
           style="font-style:normal;font-variant:normal;font-weight:normal;font-stretch:normal;font-family:'Serto Jerusalem';-inkscape-font-specification:'Serto Jerusalem'"
           d="m 135.62431,158.99154 q 0,0.70957 -2.1674,1.48364 -1.43203,0.50314 -2.92856,0.50314 -2.45122,0 -4.16707,-1.59974 -1.71586,-1.59975 -1.71586,-4.03807 0,-2.2319 1.63845,-3.72843 1.59974,-1.45783 3.84454,-1.45783 2.45122,0 3.97356,1.58684 1.52234,1.58684 1.49653,4.03806 l -9.95969,0 q 0.25802,1.93518 1.58684,3.08338 1.34172,1.1353 3.3027,1.1353 2.41252,0 4.24448,-1.31592 0.24512,-0.18061 0.38704,-0.18061 0.46444,0 0.46444,0.49024 z m -1.00629,-4.19287 q -0.29673,-1.65135 -1.54814,-2.64474 -1.25141,-1.00629 -2.94147,-1.00629 -1.70295,0 -2.94146,0.99339 -1.23851,0.99339 -1.53524,2.65764 l 8.96631,0 z" />
        <path
           inkscape:connector-curvature="0"
           id="path4742"
           style="font-style:normal;font-variant:normal;font-weight:normal;font-stretch:normal;font-family:'Serto Jerusalem';-inkscape-font-specification:'Serto Jerusalem'"
           d="m 160.92348,156.46292 q 0,1.75455 -1.34172,2.96726 -1.29012,1.17401 -3.07048,1.17401 l -7.56008,0.0129 q -0.72246,0 -0.72246,-0.54185 0,-0.55475 0.72246,-0.55475 l 0.91598,0 0,-12.92696 -0.91598,0 q -0.72246,0 -0.72246,-0.55475 0,-0.54185 0.72246,-0.54185 l 6.26996,0.0129 q 1.81907,0 3.13499,1.0321 1.43202,1.1095 1.43202,2.87695 0,1.98678 -2.12869,3.21239 3.264,1.17401 3.264,3.83165 z m -2.2319,-7.13434 q 0,-1.23852 -1.14821,-2.02549 -1.00629,-0.70956 -2.2964,-0.70956 l -4.29609,0 0,5.6249 3.83165,0 q 1.52233,0 2.60603,-0.67086 1.30302,-0.78697 1.30302,-2.21899 z m 1.1353,7.16014 q 0,-0.82568 -0.56765,-1.59975 -1.17401,-1.57394 -4.4122,-1.57394 l -3.89615,0 0,6.20546 5.48299,0 q 1.34172,0 2.33511,-0.83858 1.0579,-0.87727 1.0579,-2.19319 z" />
        <path
           inkscape:connector-curvature="0"
           id="path4744"
           style="font-style:normal;font-variant:normal;font-weight:normal;font-stretch:normal;font-family:'Serto Jerusalem';-inkscape-font-specification:'Serto Jerusalem'"
           d="m 175.25666,152.14103 q 0,0.56765 -0.56765,0.56765 -0.19352,0 -0.81277,-0.55475 -0.61926,-0.56765 -1.18691,-0.56765 -1.04499,0 -2.78665,1.30302 -0.65796,0.49024 -2.38671,2.03838 l 0,4.60571 q 1.0837,0 0.98049,-0.0129 0.65795,0.0774 0.65795,0.55475 0,0.54185 -0.72246,0.54185 l -2.90276,0 q -0.73537,0 -0.73537,-0.54185 0,-0.47734 0.65796,-0.55475 -0.10321,0.0129 0.98049,0.0129 l 0,-7.66329 q -1.0708,0 -0.99339,0.0129 -0.64506,-0.0774 -0.64506,-0.56765 0,-0.54184 0.72247,-0.54184 l 1.99968,0 0,2.73504 q 1.56104,-1.40623 2.33511,-1.93517 1.54814,-1.0708 2.77375,-1.0708 0.65796,0 1.59974,0.51605 1.03209,0.56765 1.03209,1.1224 z" />
        <path
           inkscape:connector-curvature="0"
           id="path4746"
           style="font-style:normal;font-variant:normal;font-weight:normal;font-stretch:normal;font-family:'Serto Jerusalem';-inkscape-font-specification:'Serto Jerusalem'"
           d="m 190.11879,158.99154 q 0,0.70957 -2.16739,1.48364 -1.43203,0.50314 -2.92856,0.50314 -2.45122,0 -4.16708,-1.59974 -1.71585,-1.59975 -1.71585,-4.03807 0,-2.2319 1.63845,-3.72843 1.59974,-1.45783 3.84454,-1.45783 2.45122,0 3.97356,1.58684 1.52233,1.58684 1.49653,4.03806 l -9.95969,0 q 0.25802,1.93518 1.58684,3.08338 1.34172,1.1353 3.3027,1.1353 2.41251,0 4.24448,-1.31592 0.24512,-0.18061 0.38703,-0.18061 0.46444,0 0.46444,0.49024 z m -1.00629,-4.19287 q -0.29672,-1.65135 -1.54814,-2.64474 -1.25141,-1.00629 -2.94146,-1.00629 -1.70295,0 -2.94146,0.99339 -1.23851,0.99339 -1.53524,2.65764 l 8.9663,0 z" />
        <path
           inkscape:connector-curvature="0"
           id="path4748"
           style="font-style:normal;font-variant:normal;font-weight:normal;font-stretch:normal;font-family:'Serto Jerusalem';-inkscape-font-specification:'Serto Jerusalem'"
           d="m 212.51521,150.92832 q 0.16771,0.15481 0.16771,0.38703 0,0.49025 -0.65796,0.56765 0.11611,-0.0129 -0.98049,-0.0129 l 1.47074,-0.94178 z m 0.16771,0.38703 q 0,0.49025 -0.65796,0.56765 0.11611,-0.0129 -0.98049,-0.0129 l -3.88325,8.73409 -1.83196,0 -1.99968,-4.70893 -1.97388,4.70893 -1.83196,0 -3.93485,-8.73409 q -1.0966,0 -0.98049,0.0129 -0.65796,-0.0774 -0.65796,-0.56765 0,-0.54184 0.68376,-0.54184 l 3.07048,0 q 0.68376,0 0.68376,0.54184 0,0.49025 -0.65796,0.56765 0.11611,-0.0129 -0.98049,-0.0129 l 3.45751,7.65039 0.47734,0 2.05129,-4.86374 1.1869,0 2.08999,4.86374 0.47734,0 3.38011,-7.65039 q -1.0966,0 -0.98049,0.0129 -0.65796,-0.0774 -0.65796,-0.56765 0,-0.54184 0.68376,-0.54184 l 3.08338,0 q 0.68376,0 0.68376,0.54184 z m -14.4622,-0.38703 q 0.16772,0.15481 0.16772,0.38703 0,0.49025 -0.65796,0.56765 0.11611,-0.0129 -0.98049,-0.0129 l 1.47073,-0.94178 z" />
        <path
           inkscape:connector-curvature="0"
           id="path4750"
           style="font-style:normal;font-variant:normal;font-weight:normal;font-stretch:normal;font-family:'Serto Jerusalem';-inkscape-font-specification:'Serto Jerusalem'"
           d="m 218.69486,159.57209 q 0,1.98678 -2.01258,3.54782 0,-1.27721 -0.28383,-1.47073 0.91599,-0.43864 0.91599,-1.19981 -0.81278,-0.21932 -0.81278,-1.1095 0,-0.45154 0.30963,-0.77407 0.30963,-0.32252 0.76117,-0.32252 1.1224,0 1.1224,1.32881 z" />
        <path
           inkscape:connector-curvature="0"
           id="path4752"
           style="font-style:normal;font-variant:normal;font-weight:normal;font-stretch:normal;font-family:'Serto Jerusalem';-inkscape-font-specification:'Serto Jerusalem'"
           d="m 243.49089,153.80528 q 0,2.67054 -1.71585,4.68312 -1.79327,2.11579 -4.4251,2.11579 l -5.83132,0.0129 q -0.21932,-0.0258 -0.55475,-0.15482 -0.16772,-0.15481 -0.16772,-0.38703 0,-0.55475 0.72247,-0.55475 l 0.91598,0 0,-12.90116 -0.91598,0 q -0.72247,0 -0.72247,-0.55475 0,-0.54185 0.72247,-0.54185 l 5.83132,-0.0129 q 4.07676,0 5.76682,4.4509 0.37413,0.98049 0.37413,3.84455 z m -1.0837,0.23222 0,-1.96098 q 0,-2.05128 -1.43203,-3.72843 -1.49653,-1.75456 -3.52201,-1.75456 l -3.93486,0 0,12.92696 3.93486,0 q 1.99968,0 3.50911,-1.75456 1.44493,-1.69005 1.44493,-3.72843 z" />
        <path
           inkscape:connector-curvature="0"
           id="path4754"
           style="font-style:normal;font-variant:normal;font-weight:normal;font-stretch:normal;font-family:'Serto Jerusalem';-inkscape-font-specification:'Serto Jerusalem'"
           d="m 258.2369,155.61144 q 0,2.2577 -1.59974,3.83164 -1.58684,1.57394 -3.85745,1.57394 -2.2706,0 -3.87034,-1.56104 -1.59975,-1.57394 -1.59975,-3.84454 0,-2.2706 1.59975,-3.84455 1.59974,-1.57394 3.87034,-1.57394 2.27061,0 3.85745,1.57394 1.59974,1.57395 1.59974,3.84455 z m -0.98048,0 q 0,-1.85777 -1.31592,-3.13498 -1.30302,-1.29012 -3.17369,-1.29012 -1.85776,0 -3.17368,1.29012 -1.30302,1.27721 -1.30302,3.13498 0,1.84486 1.31592,3.13498 1.31592,1.29012 3.16078,1.29012 1.85777,0 3.17369,-1.27722 1.31592,-1.29011 1.31592,-3.14788 z" />
        <path
           inkscape:connector-curvature="0"
           id="path4756"
           style="font-style:normal;font-variant:normal;font-weight:normal;font-stretch:normal;font-family:'Serto Jerusalem';-inkscape-font-specification:'Serto Jerusalem'"
           d="m 284.65847,146.05168 q 0,0.55475 -0.72246,0.55475 l -0.91599,0 -4.68312,7.19885 0,5.72811 0.91599,0 q 0.72246,0 0.72246,0.55475 0,0.54185 -0.72246,0.54185 l -2.92857,0 q -0.72246,0 -0.72246,-0.54185 0,-0.55475 0.72246,-0.55475 l 0.91599,0 0,-5.72811 -4.76053,-7.19885 -0.91598,0 q -0.72247,0 -0.72247,-0.55475 0,-0.54185 0.72247,-0.54185 l 3.17368,0 q 0.72247,0 0.72247,0.54185 0,0.55475 -0.72247,0.55475 l -0.91598,0 3.97356,6.10225 3.88324,-6.10225 -0.91598,0 q -0.72246,0 -0.72246,-0.55475 0,-0.54185 0.72246,-0.54185 l 3.17369,0 q 0.72246,0 0.72246,0.54185 z" />
        <path
           inkscape:connector-curvature="0"
           id="path4758"
           style="font-style:normal;font-variant:normal;font-weight:normal;font-stretch:normal;font-family:'Serto Jerusalem';-inkscape-font-specification:'Serto Jerusalem'"
           d="m 299.46901,155.61144 q 0,2.2577 -1.59975,3.83164 -1.58684,1.57394 -3.85744,1.57394 -2.27061,0 -3.87035,-1.56104 -1.59974,-1.57394 -1.59974,-3.84454 0,-2.2706 1.59974,-3.84455 1.59974,-1.57394 3.87035,-1.57394 2.2706,0 3.85744,1.57394 1.59975,1.57395 1.59975,3.84455 z m -0.98049,0 q 0,-1.85777 -1.31592,-3.13498 -1.30302,-1.29012 -3.17368,-1.29012 -1.85777,0 -3.17369,1.29012 -1.30302,1.27721 -1.30302,3.13498 0,1.84486 1.31592,3.13498 1.31592,1.29012 3.16079,1.29012 1.85776,0 3.17368,-1.27722 1.31592,-1.29011 1.31592,-3.14788 z" />
        <path
           inkscape:connector-curvature="0"
           id="path4760"
           style="font-style:normal;font-variant:normal;font-weight:normal;font-stretch:normal;font-family:'Serto Jerusalem';-inkscape-font-specification:'Serto Jerusalem'"
           d="m 315.89218,160.06234 q 0,0.54185 -0.72246,0.54185 l -1.99968,0 0,-1.58685 q -2.219,2.01259 -4.79923,2.01259 -1.56104,0 -2.52863,-0.96759 -0.95469,-0.98049 -0.95469,-2.54153 l 0,-5.65071 q -1.07079,0 -0.99338,0.0129 -0.64506,-0.0774 -0.64506,-0.56765 0,-0.54184 0.72246,-0.54184 l 1.99968,0 0,6.7473 q 0,1.04499 0.65796,1.74166 0.65796,0.68376 1.69005,0.68376 2.64474,0 4.85084,-2.42542 l 0,-5.65071 q -1.0708,0 -0.99339,0.0129 -0.64506,-0.0774 -0.64506,-0.56765 0,-0.54184 0.72247,-0.54184 l 1.99967,0 0,8.74698 q 1.0837,0 0.98049,-0.0129 0.65796,0.0774 0.65796,0.55475 z" />
        <path
           inkscape:connector-curvature="0"
           id="path4762"
           style="font-style:normal;font-variant:normal;font-weight:normal;font-stretch:normal;font-family:'Serto Jerusalem';-inkscape-font-specification:'Serto Jerusalem'"
           d="m 329.10296,149.67691 q 0,1.63844 -1.48364,2.77375 -0.81277,0.61925 -2.94146,1.52233 0,1.27722 0.0129,1.0837 -0.0645,0.73537 -0.55475,0.73537 -0.55475,0 -0.55475,-0.72247 l 0,-1.81906 q 1.89647,-0.70957 2.77375,-1.25141 1.66425,-1.0321 1.66425,-2.29641 0,-1.56104 -1.1095,-2.52863 -1.0966,-0.96758 -2.67054,-0.96758 -1.57394,0 -3.44461,0.91598 0,1.31592 0.0258,1.0966 -0.0774,0.73536 -0.56765,0.73536 -0.54184,0 -0.54184,-0.72246 l 0,-1.81907 q 1.66424,-0.73536 2.2319,-0.91598 1.1482,-0.37413 2.38671,-0.37413 2.07709,0 3.4059,1.22561 1.36753,1.26431 1.36753,3.3285 z m -3.09628,9.97259 q 0,0.55475 -0.39994,0.95469 -0.39993,0.38703 -0.95468,0.38703 l -1.0837,0 q -0.55475,0 -0.95468,-0.38703 -0.38704,-0.38704 -0.38704,-0.94179 0,-0.56765 0.38704,-0.95468 0.38703,-0.39994 0.95468,-0.39994 l 1.0837,0 q 0.56765,0 0.95468,0.38704 0.39994,0.38703 0.39994,0.95468 z" />
      </g>
      <g
         transform="translate(-1.515228,0)"
         id="g4768">
        <path
           inkscape:connector-curvature="0"
           id="path4704"
           d="m 85.092086,186.84041 240.000014,0 z"
           style="fill:none;fill-rule:evenodd;stroke:#000000;stroke-width:1;stroke-linecap:butt;stroke-linejoin:miter;stroke-miterlimit:4;stroke-dasharray:none;stroke-opacity:1" />
        <path
           style="fill:none;fill-rule:evenodd;stroke:#000000;stroke-width:1;stroke-linecap:butt;stroke-linejoin:miter;stroke-miterlimit:4;stroke-dasharray:none;stroke-opacity:1"
           d="m 96.001174,193.02157 218.181826,0 z"
           id="path4706"
           inkscape:connector-curvature="0" />
      </g>
      <g
         transform="matrix(-1,0,0,-1,408.66896,317.7376)"
         id="g4772">
        <path
           style="fill:none;fill-rule:evenodd;stroke:#000000;stroke-width:1;stroke-linecap:butt;stroke-linejoin:miter;stroke-miterlimit:4;stroke-dasharray:none;stroke-opacity:1"
           d="m 85.092086,186.84041 240.000014,0 z"
           id="path4774"
           inkscape:connector-curvature="0" />
        <path
           inkscape:connector-curvature="0"
           id="path4776"
           d="m 96.001174,193.02157 218.181826,0 z"
           style="fill:none;fill-rule:evenodd;stroke:#000000;stroke-width:1;stroke-linecap:butt;stroke-linejoin:miter;stroke-miterlimit:4;stroke-dasharray:none;stroke-opacity:1" />
      </g>
    </g>
  </g>
</svg>
