<?xml version="1.0" encoding="UTF-8" standalone="no"?>
<svg
   xmlns:dc="http://purl.org/dc/elements/1.1/"
   xmlns:cc="http://creativecommons.org/ns#"
   xmlns:rdf="http://www.w3.org/1999/02/22-rdf-syntax-ns#"
   xmlns:svg="http://www.w3.org/2000/svg"
   xmlns="http://www.w3.org/2000/svg"
   xmlns:sodipodi="http://sodipodi.sourceforge.net/DTD/sodipodi-0.dtd"
   xmlns:inkscape="http://www.inkscape.org/namespaces/inkscape"
   id="svg2"
   version="1.1"
   xml:space="preserve"
   height="54"
   viewBox="0 0 59.999492 54.000973"
   width="60"
   enable-background="new 0 0 24 24"
   y="0px"
   x="0px"
   inkscape:version="0.91 r13725"
   sodipodi:docname="tap.svg"><defs
     id="defs7" /><sodipodi:namedview
     pagecolor="#ffffff"
     bordercolor="#666666"
     borderopacity="1"
     objecttolerance="10"
     gridtolerance="10"
     guidetolerance="10"
     inkscape:pageopacity="0"
     inkscape:pageshadow="2"
     inkscape:window-width="1280"
     inkscape:window-height="751"
     id="namedview5"
     showgrid="false"
     inkscape:zoom="12.361274"
     inkscape:cx="24.164983"
     inkscape:cy="13.788991"
     inkscape:window-x="0"
     inkscape:window-y="1"
     inkscape:window-maximized="1"
     inkscape:current-layer="svg2"
     showguides="true"
     inkscape:guide-bbox="true"
     inkscape:snap-intersection-paths="true"
     inkscape:snap-midpoints="true"><sodipodi:guide
       position="29.122965,4.9348553"
       orientation="0,1"
       id="guide4143" /></sodipodi:namedview><metadata
     id="metadata14"><rdf:RDF><cc:Work
         rdf:about=""><dc:format>image/svg+xml</dc:format><dc:type
           rdf:resource="http://purl.org/dc/dcmitype/StillImage" /><dc:title /></cc:Work></rdf:RDF></metadata><path
     id="path4"
     d="m 43.791,48.002 0,-8.9969 c 0,-6.5977 -5.3985,-11.996 -11.997,-11.996 l -4.802,0 c 0,-1.7994 -1.1997,-2.999 -2.9992,-2.999 l -5.9984,0 0,-11.396 34.491,2.3992 c 4.1989,0.2999 7.7979,-3.8986 7.4979,-8.0972 -0.29992,-3.8986 -3.8989,-7.1975 -7.7979,-6.8976 l -43.189,3.0008 0,20.993 -5.9984,0 c -1.7995,0 -2.9992,1.1996 -2.9992,2.999 l 0,14.995 c 0,1.7994 1.1997,2.999 2.9992,2.999 l 20.994,0 c 1.7995,0 2.9992,-1.1996 2.9992,-2.999 l 0,-5.9979 4.802,0 c 1.7995,0 2.9992,1.1996 2.9992,2.999 l 0,8.9969 c 0,0 -4.209049,-0.538876 -5.799615,1.05169 C 27.402219,50.646556 27.2939,54.0022 27.2939,54.0022 l 23.994,0 c 0,0 0.296095,-3.355726 -1.294388,-4.94621 C 48.403028,47.465507 43.7901,48.0043 43.7901,48.0043 Z"
     inkscape:connector-curvature="0"
     sodipodi:nodetypes="csscscccccccsssssscssczcczcc" /><path
     d="M 20.734368,4.6178738 48.334508,3.421471 c 3.360063,-0.1447337 6.109107,-0.04001 5.9459,-1.2687912 0.01469,-1.117167 -3.163359,-0.6753851 -6.279811,-0.4732982 L 13.47784,3.880303 c -6.7772021,0.3281229 0.265656,1.0534363 7.256528,0.7375708 z"
     id="path4135"
     inkscape:connector-curvature="0"
     style="fill:#ffffff"
     sodipodi:nodetypes="cccccc" /><path
     sodipodi:nodetypes="cccccc"
     style="fill:#ffffff"
     inkscape:connector-curvature="0"
     id="path4139"
     d="m 3.0860215,27.866964 18.1546805,0.03256 c 1.76122,0.0295 3.17796,0.275571 3.22648,-0.955029 0.128805,-1.110406 -1.570062,-0.835055 -3.210953,-0.794933 l -18.5120176,0.0429 c -0.3779299,0.219198 -1.0357292,1.142387 0.3418101,1.6745 z" /><path
     d="m 28.083895,30.941136 c 0,0 5.085899,-0.361732 7.395079,0.517956 1.779874,0.678047 3.131187,4.796924 4.520867,3.494431 1.46718,-1.375131 -1.636048,-3.988057 -3.372751,-5.001695 -2.495805,-1.456693 -8.642308,-0.685194 -8.642308,-0.685194 -0.37793,0.219198 -1.278426,1.142387 0.09911,1.674502 z"
     id="path4141"
     inkscape:connector-curvature="0"
     style="fill:#ffffff"
     sodipodi:nodetypes="caaacc" /></svg>