<?xml version="1.0" encoding="UTF-8" standalone="no"?>
<svg id="svg2" xmlns:rdf="http://www.w3.org/1999/02/22-rdf-syntax-ns#" xmlns="http://www.w3.org/2000/svg" version="1.1" xml:space="preserve" height="54" viewBox="0 0 59.999492 54.000973" width="60" enable-background="new 0 0 24 24" y="0px" x="0px" xmlns:cc="http://creativecommons.org/ns#" xmlns:dc="http://purl.org/dc/elements/1.1/"><metadata id="metadata14"><rdf:RDF><cc:Work rdf:about=""><dc:format>image/svg+xml</dc:format><dc:type rdf:resource="http://purl.org/dc/dcmitype/StillImage"/><dc:title/></cc:Work></rdf:RDF></metadata><path id="path4" d="m43.791 48.002v-8.9969c0-6.5977-5.3985-11.996-11.997-11.996h-4.802c0-1.7994-1.1997-2.999-2.9992-2.999h-5.9984v-11.396l34.491 2.3992c4.1989 0.2999 7.7979-3.8986 7.4979-8.0972-0.29992-3.8986-3.8989-7.1975-7.7979-6.8976l-43.189 3.0008v20.993h-5.9984c-1.7995 0-2.9992 1.1996-2.9992 2.999v14.995c0 1.7994 1.1997 2.999 2.9992 2.999h20.994c1.7995 0 2.9992-1.1996 2.9992-2.999v-5.9979h4.802c1.7995 0 2.9992 1.1996 2.9992 2.999v8.9969h-7.4985v5.9979h23.994v-5.9979h-7.4978z"/></svg>
